<?xml version="1.0" standalone="no"?>
<!DOCTYPE svg PUBLIC "-//W3C//DTD SVG 20010904//EN"
 "http://www.w3.org/TR/2001/REC-SVG-20010904/DTD/svg10.dtd">
<svg version="1.0" xmlns="http://www.w3.org/2000/svg"
 width="700.000000pt" height="700.000000pt" viewBox="0 0 700.000000 700.000000"
 preserveAspectRatio="xMidYMid meet">
<metadata>
Created by potrace 1.14, written by Peter Selinger 2001-2017
</metadata>
<g transform="translate(0.000000,700.000000) scale(0.100000,-0.100000)"
fill="#000000" stroke="none">
<path d="M3270 6994 c-759 -67 -1351 -294 -1930 -740 -149 -115 -480 -446
-594 -594 -515 -668 -767 -1436 -742 -2260 23 -769 266 -1442 742 -2060 114
-148 445 -479 594 -594 661 -511 1442 -768 2255 -743 774 24 1445 266 2065
743 148 113 478 444 594 594 489 631 745 1374 746 2156 0 787 -255 1530 -746
2164 -116 150 -446 481 -594 594 -522 402 -1069 631 -1710 717 -139 19 -564
33 -680 23z m560 -469 c691 -77 1328 -384 1820 -875 422 -423 715 -966 830
-1540 118 -588 63 -1196 -155 -1740 -344 -855 -1066 -1517 -1950 -1785 -447
-135 -978 -163 -1440 -75 -927 177 -1723 776 -2149 1619 -221 438 -326 876
-326 1367 0 222 10 342 46 544 102 566 359 1082 757 1520 374 411 906 735
1447 879 133 35 358 77 480 90 143 14 493 12 640 -4z"/>
<path d="M3555 6004 c-720 -58 -1351 -259 -1850 -590 -365 -242 -640 -549
-821 -919 -195 -398 -227 -783 -89 -1070 89 -185 256 -329 457 -395 38 -12 68
-27 68 -35 0 -22 49 -183 87 -284 389 -1044 1514 -1645 2603 -1390 633 148
1189 580 1476 1149 38 76 66 114 138 190 318 332 494 742 513 1195 19 469
-136 893 -470 1281 -373 433 -962 756 -1552 849 -97 16 -452 27 -560 19z m567
-483 c422 -86 812 -294 1114 -595 240 -240 384 -501 429 -776 19 -122 19 -332
0 -446 -96 -560 -526 -1005 -1080 -1118 -115 -24 -304 -38 -395 -31 -310 25
-525 125 -810 375 -58 51 -152 134 -209 184 -157 138 -274 220 -406 286 -196
97 -353 127 -615 116 -96 -3 -208 -15 -295 -31 -242 -44 -296 -49 -382 -36
-99 14 -171 50 -222 107 -170 194 -75 637 219 1024 277 364 719 646 1279 814
226 68 454 112 781 150 19 2 136 3 260 1 185 -2 244 -6 332 -24z m-1688 -2481
c148 -37 258 -110 523 -346 87 -77 194 -170 238 -205 231 -186 466 -302 727
-360 160 -35 517 -37 688 -3 23 5 23 3 -10 -26 -162 -145 -492 -296 -771 -352
-152 -30 -492 -33 -634 -5 -394 79 -697 240 -967 514 -140 141 -231 269 -321
449 -48 95 -117 269 -117 294 0 5 26 14 58 21 207 43 459 52 586 19z"/>
<path d="M2166 4554 c-109 -306 -194 -559 -190 -563 12 -10 415 -154 419 -149
9 10 395 1103 392 1111 -2 8 -398 157 -417 157 -3 0 -94 -250 -204 -556z"/>
<path d="M3055 4337 c-108 -304 -197 -556 -198 -561 -2 -10 384 -154 413 -155
11 -1 68 149 210 545 107 301 196 552 198 559 2 6 -35 24 -85 42 -48 17 -145
51 -214 76 l-127 45 -197 -551z"/>
<path d="M4340 4596 c-254 -53 -464 -241 -547 -491 -25 -72 -27 -94 -27 -225
0 -131 2 -153 27 -225 37 -113 90 -197 177 -286 154 -156 350 -231 568 -216
261 17 494 175 606 410 54 112 70 186 70 317 0 131 -16 205 -69 316 -88 184
-249 321 -450 384 -89 28 -261 35 -355 16z m268 -472 c253 -126 167 -514 -113
-514 -74 0 -116 13 -170 52 -147 106 -147 329 0 436 55 40 89 50 166 51 51 1
76 -5 117 -25z"/>
</g>
</svg>
